<mxfile host="app.diagrams.net" agent="Mozilla/5.0 (Windows NT 10.0; Win64; x64) AppleWebKit/537.36 (KHTML, like Gecko) Chrome/137.0.0.0 Safari/537.36" version="28.0.4">
  <diagram name="Page-1" id="OdftOlzNuF4VYKblcXK3">
    <mxGraphModel dx="1042" dy="527" grid="1" gridSize="10" guides="1" tooltips="1" connect="1" arrows="1" fold="1" page="1" pageScale="1" pageWidth="827" pageHeight="1169" math="0" shadow="0">
      <root>
        <mxCell id="0" />
        <mxCell id="1" parent="0" />
        <mxCell id="3lyKsbEjnOoo27HI6Ye_-1" value="LOG CENTER" style="rounded=0;whiteSpace=wrap;html=1;" vertex="1" parent="1">
          <mxGeometry x="270" y="440" width="280" as="geometry" />
        </mxCell>
        <mxCell id="3lyKsbEjnOoo27HI6Ye_-12" style="edgeStyle=orthogonalEdgeStyle;rounded=0;orthogonalLoop=1;jettySize=auto;html=1;exitX=0;exitY=0.5;exitDx=0;exitDy=0;entryX=0.5;entryY=0;entryDx=0;entryDy=0;" edge="1" parent="1" source="3lyKsbEjnOoo27HI6Ye_-3" target="3lyKsbEjnOoo27HI6Ye_-5">
          <mxGeometry relative="1" as="geometry" />
        </mxCell>
        <mxCell id="3lyKsbEjnOoo27HI6Ye_-3" value="rsyslog" style="rounded=0;whiteSpace=wrap;html=1;" vertex="1" parent="1">
          <mxGeometry x="240" y="120" width="120" height="60" as="geometry" />
        </mxCell>
        <mxCell id="3lyKsbEjnOoo27HI6Ye_-13" style="edgeStyle=orthogonalEdgeStyle;rounded=0;orthogonalLoop=1;jettySize=auto;html=1;exitX=0;exitY=0.5;exitDx=0;exitDy=0;entryX=1;entryY=0.5;entryDx=0;entryDy=0;" edge="1" parent="1" source="3lyKsbEjnOoo27HI6Ye_-4" target="3lyKsbEjnOoo27HI6Ye_-3">
          <mxGeometry relative="1" as="geometry" />
        </mxCell>
        <mxCell id="3lyKsbEjnOoo27HI6Ye_-14" style="edgeStyle=orthogonalEdgeStyle;rounded=0;orthogonalLoop=1;jettySize=auto;html=1;exitX=0.5;exitY=1;exitDx=0;exitDy=0;" edge="1" parent="1" source="3lyKsbEjnOoo27HI6Ye_-4" target="3lyKsbEjnOoo27HI6Ye_-6">
          <mxGeometry relative="1" as="geometry" />
        </mxCell>
        <mxCell id="3lyKsbEjnOoo27HI6Ye_-4" value="Dupral App" style="rounded=0;whiteSpace=wrap;html=1;" vertex="1" parent="1">
          <mxGeometry x="460" y="120" width="120" height="60" as="geometry" />
        </mxCell>
        <mxCell id="3lyKsbEjnOoo27HI6Ye_-5" value="BDD" style="rounded=1;whiteSpace=wrap;html=1;" vertex="1" parent="1">
          <mxGeometry x="40" y="200" width="120" height="60" as="geometry" />
        </mxCell>
        <mxCell id="3lyKsbEjnOoo27HI6Ye_-6" value="BDD" style="rounded=1;whiteSpace=wrap;html=1;" vertex="1" parent="1">
          <mxGeometry x="460" y="270" width="120" height="60" as="geometry" />
        </mxCell>
        <mxCell id="3lyKsbEjnOoo27HI6Ye_-15" value="Log App" style="text;html=1;align=center;verticalAlign=middle;whiteSpace=wrap;rounded=0;" vertex="1" parent="1">
          <mxGeometry x="384" y="120" width="60" height="30" as="geometry" />
        </mxCell>
        <mxCell id="3lyKsbEjnOoo27HI6Ye_-16" value="Log de Dupral" style="text;html=1;align=center;verticalAlign=middle;whiteSpace=wrap;rounded=0;" vertex="1" parent="1">
          <mxGeometry x="90" y="120" width="110" height="30" as="geometry" />
        </mxCell>
        <mxCell id="3lyKsbEjnOoo27HI6Ye_-17" value="Info App" style="text;html=1;align=center;verticalAlign=middle;whiteSpace=wrap;rounded=0;" vertex="1" parent="1">
          <mxGeometry x="530" y="215" width="60" height="30" as="geometry" />
        </mxCell>
        <mxCell id="3lyKsbEjnOoo27HI6Ye_-19" value="" style="whiteSpace=wrap;html=1;aspect=fixed;fillColor=none;" vertex="1" parent="1">
          <mxGeometry x="40" width="340" height="340" as="geometry" />
        </mxCell>
        <mxCell id="3lyKsbEjnOoo27HI6Ye_-20" value="" style="whiteSpace=wrap;html=1;aspect=fixed;fillColor=none;" vertex="1" parent="1">
          <mxGeometry x="450" width="340" height="340" as="geometry" />
        </mxCell>
      </root>
    </mxGraphModel>
  </diagram>
</mxfile>
